<?xml version="1.0" encoding="utf-8"?>
<!-- Generator: Adobe Illustrator 27.0.0, SVG Export Plug-In . SVG Version: 6.00 Build 0)  -->
<svg version="1.1" id="Layer_2" xmlns="http://www.w3.org/2000/svg" xmlns:xlink="http://www.w3.org/1999/xlink" x="0px" y="0px"
	 viewBox="0 0 456 456" style="enable-background:new 0 0 456 456;" xml:space="preserve">
<style type="text/css">
	.st0{fill:#FFFFFF;}
</style>
<g>
	<path class="st0" d="M73.9,202.6c1.7,0,3.3,0.1,4.5,1.2c1.3,1.2,2.5,2.9,2.5,5.5c0,4.5-7,9-9.4,9c-0.2,0-0.6-0.2-0.6-0.5
		c0-1.2,7.4-4.6,7.6-8.9c-0.2-1.1-1.5-1.2-3.1-1.2c-4.4,0-9.2,1.6-13.4,4.3c-3.9,2.5-9.2,6.7-9.1,10.4c0,5,14.7,3.7,14.7,13
		c0,7-8.4,12.9-12.8,12.9c-2.2,0-4.5-1.2-4.5-4.2c0-3.5,6.2-6.5,8.4-6.7c0.2,0,0.4,0.2,0.4,0.5c0,0.6-0.4,0.7-0.4,0.7
		c-0.7,0.3-6.6,3.2-6.6,5.3c0,0.3,0.3,0.5,0.8,0.5c3.2,0,11.6-4.5,12.2-9.9c0-6.1-15.1-4.4-15.1-12.6c0-8.9,10.6-15.4,16.6-17.8
		C68.8,203.3,71.4,202.6,73.9,202.6z"/>
	<path class="st0" d="M70.7,243.6c3.6-1.9,14.8-18.5,16.5-18.5c0.7,0,2.2,1.8,2.2,3c-0.1,0.8-0.8,1.6-0.8,1.6
		c-4.6,7.5-6.3,12.8-6.3,14.7c0,1.5,0.2,1.6,0.3,2.2c0,0.2-0.1,0.4-0.1,0.4c-1.7-0.4-2.5-1.9-2.5-4.8c0-3.7,2.7-9.4,4.5-12.2
		c-9.2,12.6-11,16.6-13,16.6c-1.3,0-3.1-2.2-3.1-4.6c0-7.1,6.3-17.1,8.5-19.9c1.1-1.3,0.5-1.9,1.1-1.9c0.8,0,2.2,1.4,2.8,2.4
		c0.3,0.5,0.4,0.8,0.5,1.1c0,0.3-0.2,0.5-0.5,0.8C76.8,228.8,71.4,236.6,70.7,243.6z"/>
	<path class="st0" d="M85.5,254.3c0,0.7,0,1.3,0.4,2c0.2,0.2,0.6,0.6,0.6,1c0,0.2-0.1,0.2-0.3,0.4c-2.1-0.1-3.1-3.1-3.1-6.5
		c0-7.2,9-20.8,12.2-26.5c-3.6,2.6-3.7,2.7-3.9,2.7c-0.1,0-0.2-0.1-0.2-0.5c0-0.3,5.1-4.9,5.7-4.9c1,0,2.2,1.8,2.4,2.9
		c-0.4,0.9-1.1,1.8-1.8,2.9c3.1-2.8,6.6-6.4,8.5-6.6c1.3,0,2.9,2.2,3.1,4.2c-0.2,2.8-2.1,7.3-3.9,10.2c-2.4,3.9-7.4,10.4-11.7,10.4
		c-2.1,0-3-1.8-3-3.3c0-0.2,0.1-1,0.4-1c0.1,0,0.3,0.2,0.3,0.5c0.2,0.8,0.7,1.5,1.2,1.7c3.8,0,9.8-10.4,11.7-14.9
		c0.8-1.9,1.3-3.5,1.3-4.8c0-0.3-0.2-0.5-0.3-0.5c-2.3,0.9-7,5.6-9.1,8.3c-1.7,2.1-3.2,4.3-4.3,6.3
		C89.5,241.7,85.7,249.9,85.5,254.3z"/>
	<path class="st0" d="M105.8,240.6c0-7.3,7.3-16.4,12.6-19.3c0.7-0.4,1.3-0.5,1.7-0.5c1.3,0,3.6,4.2,3.8,5.7c0,4.3-6.3,8.9-9.6,8.9
		c-1.3,0-1.7-0.4-1.7-0.7c0-0.5,0.9-0.4,1.2-0.5c3.2-1,7.7-7,7.7-9.3c-2.7,0.9-6.6,4.5-9.5,8.6c-1.7,2.3-3.6,6.1-3.6,8.9
		c0,1.1,0.5,2.2,1.6,2.2c2.4-0.2,6.8-4.5,8.8-7.3c0.2-0.3,0.4-0.4,0.5-0.4c0.2,0,0.2,0.2,0.2,0.5c-0.2,1.2-3,5.4-5.9,8.2
		c-1.2,1.2-2.2,1.9-3.1,2.1C108.1,247.6,105.8,243.5,105.8,240.6z"/>
	<path class="st0" d="M127.4,235.4c6-7.9,9.1-10.5,9.1-10.5c0.2-0.3,0.4-0.4,0.6-0.4c0.7,0,2,1.6,2,2.8c0,0.7-0.7,1.5-1.4,2.5
		c-0.8,1.2-1.6,2.8-1.6,4.4c0,0.5,0.2,1,0.4,1.4c-0.1,0.1-0.2,0.1-0.3,0.1c-1.3,0-2.2-1.8-2.2-3.7c0-1.2,0.1-2.4,0.7-3.7
		c-3.5,4.4-8,9.1-10.7,14.1c-0.9,1.7-1.9,3.9-1.9,5.2c-1.3-0.2-1.7-1.4-1.7-3c0-1.8,0.8-3.5,1.2-4.5c2.1-4.2,4.2-8.9,8.1-16.2
		c-3.7,3-4,3.4-4.2,3.4c-0.3,0-0.4-0.3-0.4-0.4c0-0.4,0.4-0.8,0.4-0.8c1.2-1.2,4.9-4.8,5.9-4.8c1.1,0,2.5,1.6,2.5,3.1
		c-0.2,0.8-0.5,1.3-0.9,2L127.4,235.4z"/>
	<path class="st0" d="M142.8,225.3c0,2.5,1.5,3.4,1.5,4.2c0.1,0.2-0.3,0.3-0.4,0.3c-2.5-0.9-4.1-5.5-4.2-7.9
		c0.1-2.5,1.6-5.4,3.6-7.9c6-7.5,14.1-11.4,22.4-11.4c4.7,0,9.1,1.4,11.7,5.3c1.8,2.5,2.9,6,2.9,10.2c0,6.2-3.7,13.6-8.5,19
		c-5.6,6.2-11.4,10.5-17.7,10.5c-1.8,0-3.8-2.1-3.8-4.9c0.5-4.5,8.5-8.1,12.1-8.1c0.6,0,1.1,0.2,1.3,0.4c-2.5,1.1-6.5,2.6-10,5.4
		c-0.8,0.8-1.4,1.5-1.4,2.1c0,0.5,0.5,0.6,1.1,0.6c5.4,0,12.9-5.5,18.4-12.4c2.7-3.2,6.3-9,6.3-14c0-7-6.5-9.5-11.5-9.5
		c-7.8,0-15.3,4-21.2,11.2C144,220.2,142.8,222.3,142.8,225.3z M152.7,238.4c-0.4,0.3-0.9,0.7-1.6,0.7c-1.7-0.2-2.9-1.9-2.9-4.2
		c0-6.9,10-16.5,14.9-19c0.3-0.2,1-0.4,1.6-0.4c0.4,0,0.8,0.1,0.9,0.7c0,0.8-0.8,0.9-1.4,1.4c-4.6,3.1-12.3,12.9-12.3,19.1
		C151.8,237.6,152.4,238.4,152.7,238.4z"/>
	<path class="st0" d="M175,240.4c0-7.3,7.3-16.4,12.6-19.3c0.7-0.4,1.3-0.5,1.7-0.5c1.3,0,3.6,4.2,3.8,5.7c0,4.3-6.3,8.9-9.6,8.9
		c-1.3,0-1.7-0.4-1.7-0.7c0-0.5,0.9-0.4,1.2-0.5c3.2-1,7.7-7,7.7-9.3c-2.7,0.9-6.6,4.5-9.5,8.6c-1.7,2.3-3.6,6.1-3.6,8.9
		c0,1.1,0.5,2.2,1.6,2.2c2.4-0.2,6.8-4.5,8.8-7.3c0.2-0.3,0.4-0.4,0.5-0.4c0.2,0,0.2,0.2,0.2,0.5c-0.2,1.2-3,5.4-5.9,8.2
		c-1.2,1.2-2.2,1.9-3.1,2.1C177.2,247.5,175,243.3,175,240.4z"/>
	<path class="st0" d="M204.9,219.9c1.2,0,2,1.8,2.5,3.2l0.2,0.4c0.4,0.5,0.9,1.3,0.9,2.4c-0.2,3.6-4.5,8.9-7.2,8.9
		c-0.1,0-0.2-0.3-0.2-0.5c0.9-0.7,1.9-1.9,2.8-3.2c1.1-1.5,2.8-3.9,3-5.8c0-0.5-0.3-0.6-0.7-0.6c-1.8,0-3.7,0.9-5.4,2.3
		c-3.1,2.8-5.1,5.9-5.1,11.7c0,2.2,0.6,4.2,0.6,6.6c0,1-0.3,2.2-1.2,2.2c-2.9,0-6.8-4.8-6.8-9.2c0-0.7,0.2-1,0.4-1
		c0.4,0,0.4,0.7,0.8,2.2c0.7,2.3,2.2,4.2,4.3,4.6c0.3,0,0.5-0.3,0.5-0.9c-0.6-2.2-1.1-4.6-1.1-7.6c0-6.4,2.4-10.3,6.5-13.5
		C202.1,220,204.1,219.9,204.9,219.9z"/>
	<path class="st0" d="M213.3,223.1c0.1-0.2,0.2-0.5,0.2-0.7c0-0.1-0.1-0.3-0.1-0.5c0-0.2,0-0.2,0.1-0.2c0.4,0,0.7,0.2,1.1,0.5
		c0.8,0.6,1.8,1.8,1.8,3.2c0,0.2-0.1,0.6-0.3,0.9c-0.4,0.8-1.3,1.9-2.2,3.5c-3.1,4.7-5.3,8.5-6.9,12.4c-0.5,1.3-0.8,2.3-0.8,3.3
		c0,0.3,0.3,0.1,0.4,0.5c-0.1,0.2-0.2,0.2-0.4,0.2c-2.1-0.4-2.2-1.6-2.3-3C204.1,237.8,213.1,223.9,213.3,223.1z M216.5,220.1
		c-0.2,0-0.3-0.1-0.3-0.3c0.1-0.8,3.4-10,4.7-10c0.7,0.3,2.1,1.7,2.1,2.7c-0.1,1.7-4.7,6-6.1,7.2
		C216.9,219.8,216.7,220.1,216.5,220.1z"/>
	<path class="st0" d="M222.6,243.3l3.6-10.8c-1.4,1.3-4.1,4.7-6.2,7.3c-2.7,3.3-4.7,7.6-5.7,7.6c-1,0-1.6-1.7-2-3.1
		c-0.2-0.6-0.2-1.3-0.2-1.7c0-5,3.2-11.3,5.6-14.5c2.5-3.3,7.3-7.7,11.2-8c0.7,0,1,0.5,1,0.7c1.2,1.4,2.1,3.9,2.1,3.9
		c0.3,0.5,0.4,0.9,0.4,1.5c0,0.7-0.4,3.4-1.2,3.4c-0.1-0.2-0.1-0.2-0.1-0.3c0.1-0.4,0.6-1.2,0.6-2.3c-0.1-1.5-1.4-1.9-2.2-1.9
		c-3.4,0-8,5-8,5c-3.3,4.2-4.8,7-5.6,9.2c-0.7,2-0.8,3.2-0.8,3.5c1-1.3,4.2-4.9,7-7.9c2.3-2.4,4.6-4.4,5.1-4.4
		c-0.1,0,0.4-0.1,1.4,0.8c0.6,0.6,1.2,1,1.2,1.8c0,0.2-0.2,0.8-0.3,1.3c-0.7,2.5-2.4,6.5-3.1,8.4c0.3,0,0.7,0.1,0.8,0.5
		c0,0.6-0.5,0.7-0.5,0.7l-0.8,0.4c-1.3,3-2.2,4.8-3.3,7c-2.7,5.4-7.7,14.1-12.4,14.1c-1.7,0-2.5-1.4-2.5-3.3c0-5.1,7.1-12.7,7-12.7
		C217.2,246.3,221.1,243.9,222.6,243.3z M221.9,245.2c-3,1.6-12.3,11.1-12.5,17.1c0,0.3,0.1,0.5,0.3,0.5c1.6,0,4.5-3.9,5.6-5.4
		C218.1,253.8,220.2,249.1,221.9,245.2z"/>
	<path class="st0" d="M239.5,221.9c0.8,0,2.5,1.5,2.5,2.9c-0.2,2.1-5.5,9.5-6.9,12.1c1.5-1.9,9.7-12,12-13c0.3-0.1,0.6-0.2,0.8-0.2
		c0.8,0,2.2,1.6,2.2,2.9c0,0.3,0,0.5-1.1,2.1c-2.1,3.5-5.7,9.7-5.8,13.5c0,1.2,0.1,3.1,1.3,3.1c0.1,0,0.1,0.1,0.1,0.2
		c0,0.6-0.6,0.8-1.1,0.9c-1.7,0-3.1-2.5-3.1-5.2c0-4.5,1.9-8.3,5.1-14.2c-0.8,0.8-2,2-3.3,3.6c-3.1,3.6-7,8.4-8.9,11.3
		c-1.6,2.5-2.1,3.6-2.1,4.2c0,0.2,0.1,0.4,0.1,0.5c-0.1,0.2-0.2,0.2-0.4,0.2c-0.8,0-2.2-0.9-2.2-3c0-1.3,0.7-2.5,0.7-2.5
		c1.7-3.4,3.6-7.5,8.9-17.3c-1.7,1.3-3.1,2.5-3.3,2.5c-0.3,0-0.4-0.2-0.4-0.4c0-0.8,3.7-3.6,4.1-3.9
		C238.9,222,239.2,221.9,239.5,221.9z"/>
	<path class="st0" d="M277,235.5l1.1,0c0.3,0,0.3,0.2,0.3,0.4c0,1-1.3,1.1-2,1.3c-2.8,5.5-9.4,18.8-15.3,18.8
		c-1.4,0-2.4-1.5-2.4-3.9c0-6.2,11-15.1,14.6-16c1.6-2.6,3.3-7.3,3.6-9c-4.2,5.3-12.8,14.2-17.8,17.2c-1.1,0.8-2.2,1.1-3,1.1
		c-1.8,0-3.4-1.1-4.6-3.7c-0.8-1.5-1.1-3.6-1.1-5.4c0-12.3,11.1-24.1,18.7-29c3.7-2.3,7.9-4.4,12.5-4.4c2.4,0,4,1.4,5,4.7
		c0.3,1.2,0.5,1.9,0.5,2.6c0,1.7-1.3,5.6-2.8,5.6c-0.3,0-0.7-0.4-0.8-0.8c0.8-0.9,2-3.2,1.9-5.1c0-1.3-1.6-1.6-3.2-1.6
		c-2.3,0-4.8,0.7-7.3,1.9c-4.5,2-8.9,5.1-12.8,9.4c-3.4,3.8-9.3,12.3-9.2,19.1c0,1.4,0.5,2.5,1.7,2.5c5.3,0,16.3-10.4,21.8-16.4
		c0.7-0.6,1.1-0.7,1.3-0.7c0.7,0,1.8,1.1,2.1,2.1C279.6,229.3,278.2,233.1,277,235.5z M260.5,252.4c3.1-0.1,8.4-8.3,11.8-14.2
		C269.1,240,260.9,247.3,260.5,252.4z"/>
	<path class="st0" d="M286.6,222.9c0.1-0.2,0.2-0.5,0.2-0.7c0-0.1-0.1-0.3-0.1-0.5c0-0.2,0-0.2,0.1-0.2c0.4,0,0.7,0.2,1.1,0.5
		c0.8,0.6,1.8,1.8,1.8,3.2c0,0.2-0.1,0.6-0.3,0.9c-0.4,0.8-1.3,1.9-2.2,3.5c-3.1,4.7-5.3,8.5-6.9,12.4c-0.5,1.3-0.8,2.3-0.8,3.3
		c0,0.3,0.3,0.1,0.4,0.5c-0.1,0.2-0.2,0.2-0.4,0.2c-2.1-0.4-2.2-1.6-2.3-3C277.4,237.6,286.3,223.7,286.6,222.9z M289.8,219.9
		c-0.2,0-0.3-0.1-0.3-0.3c0.1-0.8,3.4-10,4.7-10c0.7,0.3,2.1,1.7,2.1,2.7c-0.1,1.7-4.7,6-6.1,7.2C290.2,219.6,290,219.9,289.8,219.9
		z"/>
	<path class="st0" d="M292.7,235c6-7.9,9.1-10.5,9.1-10.5c0.2-0.3,0.4-0.4,0.6-0.4c0.7,0,2,1.6,2,2.8c0,0.7-0.7,1.5-1.4,2.5
		c-0.8,1.2-1.6,2.8-1.6,4.4c0,0.5,0.2,1,0.4,1.4c-0.1,0.1-0.2,0.1-0.3,0.1c-1.3,0-2.2-1.8-2.2-3.7c0-1.2,0.1-2.4,0.7-3.7
		c-3.5,4.4-8,9.1-10.7,14.1c-0.9,1.7-1.9,3.9-1.9,5.2c-1.3-0.2-1.7-1.4-1.7-3c0-1.8,0.8-3.5,1.2-4.5c2.1-4.2,4.2-8.9,8.1-16.2
		c-3.7,3-4,3.4-4.2,3.4c-0.3,0-0.4-0.3-0.4-0.4c0-0.4,0.4-0.8,0.4-0.8c1.2-1.2,4.9-4.8,5.9-4.8c1.1,0,2.5,1.6,2.5,3.1
		c-0.2,0.8-0.5,1.3-0.9,2L292.7,235z"/>
	<path class="st0" d="M305.2,243.5c2.6,0,10.9-12.4,12.3-12.4c0.1,0,0.1,0.1,0.1,0.2c0,0.2-0.1,0.4-0.1,0.5
		c-3,4.5-9.4,15.1-12.2,15.1c-1.2,0-3.5-1.9-3.5-5.4c0-10.6,13.8-32.4,22.1-39c0.6-0.5,1.2-0.9,1.6-0.9c1.3,0.3,3.3,2.7,3.3,4.8
		c0,1.8-1.3,5.2-6.6,12.6c-2.2,3.1-10.3,14.1-13.6,14.3c-0.1,0-0.4-0.1-0.4-0.2c0-0.4,2.9-2.9,4.9-5.4c8.8-10.8,13.5-20.7,13.3-20.8
		c-0.1,0-4.8,4.3-8.6,9.3c-4,5.3-12.9,18.1-13.4,26.2C304.4,243.5,304.8,243.5,305.2,243.5z"/>
	<path class="st0" d="M312.7,249.7c-0.1,0-0.2-0.2-0.2-0.2c0-1.1,4.1-8.1,4.8-10.3c0.1-0.2,0.2-0.5,0.4-0.5c0.8,0,2.2,1,2.2,2.4
		C320,242.5,314.2,249.6,312.7,249.7z"/>
	<path class="st0" d="M347.1,238.7c0.7,0,2.5,0.1,2.5,0.8c-0.1,1-2.2,1.1-3,1.2c-8.1,1.3-13.4,8-15.2,8c-1.1,0-2.4-3.2-2.4-4.7
		c0-0.7,0.3-1.4,0.6-1.8c1.6-3.4,3.3-6.5,5.3-10c5.5-9.7,11.2-17.5,16.9-27.5c0.3-0.7,0.4-1.2,0.4-1.6c0-0.3-0.1-0.6-0.1-1
		c0.1-0.2,0.2-0.4,0.3-0.4c0.3,0,0.7,0.3,0.8,0.5c1.3,0.8,2.6,2.5,2.6,4.1c0,2.5-2.7,5.6-2.7,5.6c-8.3,10.8-17.2,24.4-19.9,30.5
		C337.8,240.3,342.2,238.7,347.1,238.7z"/>
	<path class="st0" d="M370.3,238.7c0.7,0,2.5,0.1,2.5,0.8c-0.1,1-2.2,1.1-3,1.2c-8.1,1.3-13.4,8-15.2,8c-1.1,0-2.4-3.2-2.4-4.7
		c0-0.7,0.3-1.4,0.6-1.8c1.6-3.4,3.3-6.5,5.3-10c5.5-9.7,11.2-17.5,16.9-27.5c0.3-0.7,0.4-1.2,0.4-1.6c0-0.3-0.1-0.6-0.1-1
		c0.1-0.2,0.2-0.4,0.3-0.4c0.3,0,0.7,0.3,0.8,0.5c1.3,0.8,2.6,2.5,2.6,4.1c0,2.5-2.7,5.6-2.7,5.6c-8.3,10.8-17.2,24.4-19.9,30.5
		C361,240.2,365.4,238.7,370.3,238.7z"/>
	<path class="st0" d="M399.6,231.7c0.1,0,0.3,0.2,0.3,0.4c0,0.4-0.6,1.7-0.6,1.7c-2.8,5.5-8,12.9-13.8,12.9c-2.7,0-5.4-2.4-6.7-5.8
		c-0.8-2-1.2-4.2-1.2-6.5c0-2.4,0.4-4.6,1.2-7c3.7-11.6,15.1-23.1,24.2-24.3c1.7,0,2.9,1.5,4,4.2c0.7,0.9,1.1,2.4,1.1,3
		c0,0.2,0,0.2-0.1,0.5c-0.9,1.7-7.5,7.5-8.6,7.8c-0.2,0-0.2-0.1-0.2-0.3c0-1.4,5-6.6,6-9.5c-0.2-0.6-0.8-0.8-1.4-0.8
		c-7.8,0-23.4,17-23.4,29c0,3.2,1.2,5.9,4.5,5.9c4.5,0,11.2-6.1,14-10.4C398.8,232.5,399.3,231.7,399.6,231.7z"/>
</g>
</svg>
